<svg width="199" height="43" viewBox="0 0 199 43" fill="none" xmlns="http://www.w3.org/2000/svg">
<g clip-path="url(#clip0_3800_3393)">
<path fill-rule="evenodd" clip-rule="evenodd" d="M43.0198 1.65002L22.5598 22.3563C22.1049 22.8207 21.9104 23.4827 22.039 24.1183L25.6748 42.0811C25.8858 43.1185 27.2735 43.3392 27.7943 42.4137L39.9049 20.8808C40.1389 20.4724 40.0763 20.0212 39.8422 19.6918C39.6082 19.3658 39.1995 19.1616 38.7347 19.2505L37.8612 19.4185L36.9877 19.5865C36.5492 19.6721 36.157 19.4909 35.9164 19.1912C35.6757 18.8882 35.59 18.4667 35.7713 18.0583L43.0198 1.64673V1.65002Z" fill="#46C722"></path>
<path fill-rule="evenodd" clip-rule="evenodd" d="M41.3848 0L20.6611 20.4428C20.1963 20.8973 19.5338 21.0916 18.8976 20.9632L0.919656 17.3271C-0.118674 17.1163 -0.339525 15.7298 0.586731 15.2094L22.1345 3.10907C22.5433 2.87523 22.9949 2.93781 23.3245 3.17165C23.6508 3.40548 23.8552 3.81388 23.7662 4.27826L23.5981 5.15104L23.43 6.02382C23.3443 6.46186 23.5256 6.85378 23.8255 7.09421C24.1288 7.33464 24.5507 7.42027 24.9595 7.23912L41.3848 0Z" fill="#FE0032"></path>
<path fill-rule="evenodd" clip-rule="evenodd" d="M9.79321 33.2051L19.781 31.6176C20.3776 31.5221 20.7797 30.9523 20.6644 30.3595L19.6161 24.9351C19.4645 24.1545 18.8547 23.5419 18.0702 23.3904L12.6412 22.3431C12.0479 22.2278 11.4776 22.6296 11.382 23.2258L9.79321 33.2051Z" fill="#BECCCF"></path>
<path fill-rule="evenodd" clip-rule="evenodd" d="M106.427 26.6412L107.225 22.9492C107.653 20.9566 109.625 19.3395 111.612 19.3395H115.307C116.237 19.3395 117.038 19.6952 117.559 20.3407C118.099 21.0093 118.281 21.9051 118.073 22.8701L117.275 26.5621C116.847 28.5514 114.876 30.1718 112.885 30.1718H109.189C108.26 30.1718 107.459 29.8161 106.938 29.1706C106.397 28.502 106.216 27.6029 106.424 26.6412H106.427ZM122.424 22.5111C122.859 20.4988 122.47 18.6116 121.326 17.1987C120.219 15.8286 118.534 15.0744 116.58 15.0744H112.008C107.947 15.0744 103.929 18.3745 103.055 22.4288L102.069 26.9969C101.634 29.0092 102.027 30.8964 103.167 32.3093C104.275 33.6794 105.959 34.4336 107.914 34.4336H112.486C116.547 34.4336 120.562 31.1335 121.438 27.0792L122.424 22.5111Z" fill="#E7E7E7"></path>
<path fill-rule="evenodd" clip-rule="evenodd" d="M97.2404 22.8668L96.4427 26.5589C96.0142 28.5514 94.043 30.1685 92.0521 30.1685H88.3569C87.4274 30.1685 86.6264 29.8128 86.1056 29.1673C85.565 28.4987 85.3837 27.6029 85.5913 26.6379L86.389 22.9459C86.8176 20.9566 88.7887 19.3362 90.7797 19.3362H94.4748C95.4044 19.3362 96.2054 19.6919 96.7262 20.3374C97.2668 21.006 97.4481 21.9018 97.2404 22.8668ZM95.7505 15.0711H91.1785C87.1175 15.0711 83.0994 18.3712 82.2258 22.4255L81.2402 26.9936C80.8051 29.0059 81.1941 30.8931 82.3379 32.306C83.4455 33.6761 85.1299 34.4303 87.0846 34.4303H91.6565C95.7175 34.4303 99.7357 31.1302 100.609 27.0759L101.595 22.5078C102.03 20.4955 101.638 18.6083 100.497 17.1954C99.3896 15.8253 97.7052 15.0711 95.7505 15.0711Z" fill="#E7E7E7"></path>
<path fill-rule="evenodd" clip-rule="evenodd" d="M168.453 26.7828L169.169 23.4761C169.597 21.4836 171.565 19.8664 173.556 19.8664H176.865C177.795 19.8664 178.596 20.2221 179.117 20.8677C179.657 21.5362 179.839 22.4321 179.631 23.3971L178.916 26.7038C178.487 28.693 176.516 30.3134 174.525 30.3134H171.216C170.286 30.3134 169.485 29.9577 168.964 29.3122C168.424 28.6436 168.242 27.7445 168.45 26.7828H168.453ZM177.983 15.7298H174.057C169.996 15.7298 165.981 19.0299 165.104 23.0842L164.257 27.0035C163.822 29.0158 164.214 30.903 165.355 32.3159C166.462 33.686 168.147 34.4402 170.101 34.4402H174.024C178.085 34.4402 182.1 31.1401 182.977 27.0858L183.824 23.1665C184.259 21.1542 183.87 19.267 182.726 17.8541C181.619 16.484 179.934 15.7298 177.98 15.7298H177.983Z" fill="#E7E7E7"></path>
<path fill-rule="evenodd" clip-rule="evenodd" d="M159.721 23.0842L159.006 26.3909C158.578 28.3834 156.606 30.0006 154.619 30.0006H151.309C150.38 30.0006 149.579 29.6449 149.058 28.9993C148.517 28.3308 148.336 27.4349 148.544 26.4699L149.259 23.1632C149.688 21.1707 151.659 19.5536 153.646 19.5536H156.956C157.885 19.5536 158.686 19.9093 159.207 20.5548C159.748 21.2234 159.929 22.1192 159.721 23.0842ZM162.82 17.5445C161.712 16.1744 160.028 15.4202 158.073 15.4202H154.151C153.188 15.4202 152.212 15.6046 151.24 15.9735L152.776 8.84967L151.771 9.17902L147.838 10.5228L145.284 22.3991L145.264 22.5144C145.241 22.6001 145.214 22.6857 145.198 22.7746L144.351 26.6939C143.916 28.7062 144.305 30.5934 145.449 32.0063C146.556 33.3764 148.24 34.1306 150.195 34.1306H154.118C158.179 34.1306 162.197 30.8305 163.07 26.7762L163.918 22.8537C164.353 20.8413 163.96 18.9541 162.82 17.5412V17.5445Z" fill="#E7E7E7"></path>
<path fill-rule="evenodd" clip-rule="evenodd" d="M198.054 19.794L199 15.4103H191.821L193.258 8.74756L192.009 9.25476L188.211 10.9312L184.2 29.5362C183.985 30.5308 184.18 31.5057 184.737 32.2138L185.36 33.0075C185.917 33.7189 186.81 34.124 187.809 34.124H194.893L195.839 29.7404H188.732L190.878 19.7907H198.057L198.054 19.794Z" fill="#E7E7E7"></path>
<path fill-rule="evenodd" clip-rule="evenodd" d="M137.409 14.722H132.837C128.776 14.722 124.758 18.0221 123.884 22.0764L121.283 34.1339H125.575L125.615 33.9099C125.618 33.8836 125.621 33.8572 125.628 33.8309L128.051 22.5968C128.479 20.6042 130.45 18.9871 132.438 18.9871H136.133C137.063 18.9871 137.864 19.3428 138.385 19.9883C138.925 20.6569 139.106 21.556 138.899 22.5177L136.476 33.7519C136.469 33.7782 136.463 33.8046 136.456 33.8342L136.377 34.1372H140.672L143.256 22.162C143.692 20.1497 143.303 18.2625 142.159 16.8496C141.051 15.4795 139.367 14.7253 137.412 14.7253L137.409 14.722Z" fill="#E7E7E7"></path>
<path fill-rule="evenodd" clip-rule="evenodd" d="M77.911 34.1075H73.6291L77.6143 16.3029L66.9113 29.3188C66.0048 30.4485 64.5116 31.0149 63.0382 30.7745C61.5647 30.5341 60.3418 29.5296 59.8474 28.1496L55.1864 15.3971L50.9771 34.1075H46.6952L51.8769 11.0728C52.1934 9.67303 53.4855 8.65863 54.9491 8.65863C56.2742 8.65863 57.4642 9.47871 57.9124 10.7006L63.7403 26.651L77.6539 9.73231C78.2176 9.04726 79.0515 8.65533 79.9481 8.65533H79.9778C80.8678 8.66521 81.6984 9.06044 82.2522 9.7389C82.806 10.4207 83.0169 11.3 82.8258 12.1497L77.911 34.1075Z" fill="#E7E7E7"></path>
</g>
<defs>
<clipPath id="clip0_3800_3393">
<rect width="199" height="43" fill="white"></rect>
</clipPath>
</defs>
</svg>